<?xml version="1.0" standalone="no"?>
<!DOCTYPE svg PUBLIC "-//W3C//DTD SVG 20010904//EN"
 "http://www.w3.org/TR/2001/REC-SVG-20010904/DTD/svg10.dtd">
<svg version="1.0" xmlns="http://www.w3.org/2000/svg"
 width="656.000000pt" height="221.000000pt" viewBox="0 0 656.000000 221.000000"
 preserveAspectRatio="xMidYMid meet">
<metadata>
Created by potrace 1.16, written by Peter Selinger 2001-2019
</metadata>
<g transform="translate(0.000000,221.000000) scale(0.100000,-0.100000)"
fill="#000000" stroke="none">
<path d="M6264 2175 c-103 -52 -138 -167 -84 -275 33 -65 95 -100 177 -100
157 1 246 156 173 300 -47 91 -166 125 -266 75z m143 -26 c76 -28 123 -114
103 -188 -44 -164 -273 -159 -311 6 -25 115 98 224 208 182z"/>
<path d="M6260 2000 l0 -110 25 0 c23 0 25 4 25 44 0 40 2 44 21 39 11 -3 32
-23 46 -44 18 -27 33 -39 50 -39 23 0 23 1 8 28 -8 15 -20 34 -27 43 -9 13 -6
23 13 48 22 30 23 34 8 59 -16 29 -45 39 -121 41 l-48 1 0 -110z"/>
<path d="M870 1485 l0 -325 -82 0 c-46 0 -146 -4 -223 -9 -205 -14 -312 -58
-423 -175 -100 -105 -138 -220 -129 -391 10 -186 54 -290 172 -404 136 -132
208 -151 593 -151 l272 0 0 477 0 476 293 -6 c160 -3 319 -11 352 -17 126 -24
205 -87 264 -210 34 -72 36 -80 36 -180 0 -99 -2 -109 -33 -172 -68 -139 -159
-175 -474 -185 l-198 -6 0 -90 0 -89 228 5 c248 5 310 15 410 66 70 36 175
142 204 208 53 121 69 258 44 383 -56 274 -264 449 -535 450 l-43 0 37 41 c63
70 80 119 80 234 0 89 -3 106 -28 157 -33 67 -115 146 -190 182 -58 28 -157
56 -199 56 l-28 0 0 -89 c0 -98 -4 -92 70 -106 80 -16 144 -68 175 -142 20
-48 19 -92 -6 -157 -39 -106 -150 -156 -345 -156 l-114 0 0 325 0 325 -90 0
-90 0 0 -325z m0 -896 l0 -412 -172 6 c-95 3 -198 12 -229 20 -189 47 -276
181 -267 411 3 87 8 110 34 166 51 107 132 173 254 206 27 8 114 13 213 13
l167 1 0 -411z"/>
<path d="M4570 1485 l0 -325 -77 0 c-184 -1 -357 -18 -425 -43 -223 -81 -348
-260 -348 -500 0 -241 114 -441 301 -530 104 -49 169 -57 472 -57 l267 0 0
890 0 890 -95 0 -95 0 0 -325z m0 -895 l0 -410 -112 0 c-187 0 -282 15 -368
58 -89 44 -130 93 -160 188 -25 82 -27 236 -5 311 22 73 91 161 156 200 85 50
143 62 327 62 l162 1 0 -410z"/>
<path d="M5903 1595 c-84 -36 -91 -152 -11 -199 70 -42 168 11 168 92 0 54
-31 99 -77 111 -46 13 -41 13 -80 -4z"/>
<path d="M2847 1180 c-154 -28 -259 -83 -358 -187 -110 -115 -152 -222 -153
-388 0 -183 46 -299 168 -420 126 -125 240 -169 436 -170 145 0 204 12 311 66
202 101 314 281 313 504 -1 188 -46 300 -167 419 -90 90 -165 135 -266 161
-78 20 -217 27 -284 15z m285 -197 c216 -102 305 -349 204 -568 -104 -228
-419 -306 -641 -158 -62 41 -97 84 -138 171 -30 62 -32 74 -31 172 0 84 5 117
23 162 28 73 77 136 142 184 83 61 135 75 264 72 99 -3 116 -6 177 -35z"/>
<path d="M5850 605 l0 -575 95 0 95 0 0 575 0 575 -95 0 -95 0 0 -575z"/>
<path d="M4920 1087 l0 -76 128 2 c163 2 211 -11 274 -74 36 -36 51 -61 67
-114 20 -63 21 -91 21 -431 l0 -364 90 0 90 0 0 378 c0 407 -6 465 -53 558
-35 69 -91 122 -167 158 -65 31 -66 31 -257 34 l-193 4 0 -75z"/>
</g>
</svg>
